<?xml version="1.0" standalone="no"?>
<!DOCTYPE svg PUBLIC "-//W3C//DTD SVG 20010904//EN"
 "http://www.w3.org/TR/2001/REC-SVG-20010904/DTD/svg10.dtd">
<svg version="1.0" xmlns="http://www.w3.org/2000/svg"
  viewBox="0 0 892.000000 892.000000"
 preserveAspectRatio="xMidYMid meet">
<metadata>
Created by potrace 1.16, written by Peter Selinger 2001-2019
</metadata>
<g transform="translate(0.000000,892.000000) scale(0.100000,-0.100000)"
fill="#3FB950" stroke="none">
<path d="M4105 8300 c-26 -10 -61 -49 -73 -80 -6 -14 -135 -308 -287 -655
-153 -346 -390 -886 -527 -1200 -545 -1242 -646 -1472 -785 -1790 -201 -457
-196 -443 -188 -483 3 -18 21 -50 40 -70 l33 -37 855 -5 854 -5 -38 -115 c-20
-63 -101 -313 -179 -555 -78 -242 -195 -604 -260 -805 -385 -1187 -550 -1709
-550 -1738 0 -99 110 -163 199 -117 18 9 106 119 227 282 109 147 284 383 389
523 105 140 303 406 440 590 138 184 432 578 655 877 865 1157 1417 1898 1585
2123 l175 235 0 53 c0 39 -6 62 -21 84 -43 60 -14 58 -899 58 l-810 0 34 53
c32 48 277 424 572 877 70 107 218 335 329 505 111 171 280 429 375 575 427
654 420 643 420 699 0 31 -7 62 -16 77 -38 57 33 54 -1301 53 -675 0 -1237 -4
-1248 -9z m2185 -270 c-6 -11 -101 -158 -211 -327 -111 -170 -265 -406 -343
-525 -77 -120 -224 -345 -326 -501 -102 -155 -250 -383 -330 -505 -80 -122
-228 -349 -329 -503 -195 -300 -206 -323 -178 -391 33 -78 -27 -72 889 -78
l818 -5 -142 -191 c-79 -104 -386 -515 -683 -913 -297 -398 -700 -937 -896
-1199 -196 -263 -504 -675 -684 -917 -180 -242 -338 -453 -351 -470 l-24 -30
19 60 c324 1004 435 1350 451 1395 10 30 40 120 65 200 26 80 105 326 176 546
71 221 129 418 129 439 0 45 -23 87 -60 109 -25 14 -108 16 -864 16 -460 0
-836 1 -836 3 0 2 27 66 61 143 33 76 82 189 109 249 26 61 107 245 180 410
72 165 202 460 287 655 85 195 270 616 410 935 352 802 384 876 509 1162 l109
253 1028 0 c1023 0 1028 0 1017 -20z"/>
</g>
</svg>
