<?xml version="1.0" standalone="no"?>
<!DOCTYPE svg PUBLIC "-//W3C//DTD SVG 20010904//EN"
 "http://www.w3.org/TR/2001/REC-SVG-20010904/DTD/svg10.dtd">
<svg version="1.0" xmlns="http://www.w3.org/2000/svg"
  viewBox="0 0 831.000000 831.000000"
 preserveAspectRatio="xMidYMid meet">
<metadata>
Created by potrace 1.16, written by Peter Selinger 2001-2019
</metadata>
<g transform="translate(0.000000,831.000000) scale(0.100000,-0.100000)"
fill="#3FB950" stroke="none">
<path d="M1500 7219 c-295 -29 -581 -200 -751 -450 -58 -86 -126 -233 -152
-331 l-22 -83 0 -1705 0 -1705 23 -80 c13 -44 47 -129 77 -190 159 -324 477
-541 836 -571 l79 -7 0 -411 c0 -409 0 -411 24 -461 25 -55 81 -110 132 -131
51 -21 167 -18 213 6 21 10 272 187 557 393 286 205 591 424 679 487 l159 115
1761 5 1760 5 77 22 c360 103 629 356 736 693 49 154 47 83 47 1835 l0 1650
-22 91 c-48 202 -129 355 -265 499 -185 195 -403 301 -672 325 -136 12 -5151
11 -5276 -1z m5330 -532 c143 -48 268 -153 331 -278 61 -122 59 -47 59 -1754
0 -1715 2 -1635 -62 -1758 -41 -79 -147 -185 -220 -221 -121 -59 -9 -56 -1918
-56 -1205 0 -1767 -3 -1793 -11 -46 -12 -118 -62 -678 -464 -238 -170 -435
-311 -438 -312 -3 -2 -6 129 -6 290 l0 293 -30 60 c-33 64 -95 115 -163 134
-20 5 -112 10 -204 10 -188 0 -245 9 -337 54 -84 40 -186 140 -225 221 -66
136 -61 -7 -64 1727 -3 1740 -6 1655 60 1788 42 88 151 196 239 239 128 63
-30 60 2804 58 2489 -2 2592 -3 2645 -20z"/>
</g>
</svg>
