<?xml version="1.0" standalone="no"?>
<!DOCTYPE svg PUBLIC "-//W3C//DTD SVG 20010904//EN"
 "http://www.w3.org/TR/2001/REC-SVG-20010904/DTD/svg10.dtd">
<svg version="1.0" xmlns="http://www.w3.org/2000/svg"
  viewBox="0 0 977.000000 977.000000"
 preserveAspectRatio="xMidYMid meet">
<metadata>
Created by potrace 1.16, written by Peter Selinger 2001-2019
</metadata>
<g transform="translate(0.000000,977.000000) scale(0.100000,-0.100000)"
fill="#3FB950" stroke="none">
<path d="M4415 9064 c-649 -75 -1280 -305 -1829 -668 -283 -187 -481 -352
-723 -599 -320 -328 -565 -674 -764 -1081 -350 -712 -491 -1540 -393 -2301 88
-681 313 -1285 685 -1835 598 -885 1515 -1530 2530 -1780 175 -43 408 -84 568
-100 161 -16 677 -13 847 5 996 105 1992 624 2683 1400 619 694 971 1488 1067
2405 20 198 15 722 -10 900 -110 791 -407 1485 -896 2094 -697 867 -1721 1435
-2812 1560 -177 21 -775 20 -953 0z m765 -414 c1153 -88 2231 -723 2866 -1690
204 -312 321 -548 431 -875 123 -365 178 -675 189 -1070 20 -674 -139 -1335
-461 -1914 -770 -1385 -2309 -2171 -3820 -1950 -651 94 -1269 359 -1795 768
-279 217 -558 504 -762 786 -447 616 -697 1348 -715 2095 -7 277 6 462 47 705
52 300 106 500 207 755 361 914 1067 1653 1972 2065 383 175 809 287 1231 324
139 12 454 13 610 1z"/>
<path d="M4645 7939 c-576 -46 -1119 -252 -1580 -599 -374 -282 -675 -635
-882 -1036 -229 -444 -335 -872 -335 -1364 -1 -815 309 -1565 887 -2145 405
-407 914 -694 1465 -824 252 -60 387 -75 690 -75 288 -1 390 9 610 55 1024
218 1880 950 2242 1914 146 389 216 853 189 1245 -53 750 -354 1413 -881 1940
-638 638 -1513 961 -2405 889z m591 -444 c245 -35 485 -101 690 -190 163 -71
248 -117 404 -221 166 -109 271 -195 411 -334 394 -392 649 -890 735 -1440 26
-164 27 -597 1 -758 -94 -586 -354 -1088 -773 -1492 -138 -133 -219 -199 -375
-302 -327 -218 -716 -365 -1109 -419 -147 -21 -537 -18 -685 5 -1202 184
-2101 1112 -2241 2313 -20 167 -14 492 11 653 121 775 572 1436 1257 1845 334
200 718 322 1118 356 128 10 431 2 556 -16z"/>
<path d="M4746 5960 c-412 -65 -747 -367 -851 -766 -61 -233 -35 -477 74 -699
161 -328 459 -536 829 -577 232 -25 502 50 697 194 306 227 465 600 411 966
-62 421 -359 754 -766 859 -107 27 -295 38 -394 23z m249 -435 c209 -37 390
-194 456 -398 34 -102 34 -282 1 -378 -63 -183 -226 -335 -412 -384 -71 -19
-229 -19 -300 0 -104 28 -180 73 -266 159 -123 124 -174 246 -174 415 0 271
181 510 436 575 112 28 153 30 259 11z"/>
</g>
</svg>
