<?xml version="1.0" standalone="no"?>
<!DOCTYPE svg PUBLIC "-//W3C//DTD SVG 20010904//EN"
 "http://www.w3.org/TR/2001/REC-SVG-20010904/DTD/svg10.dtd">
<svg version="1.0" xmlns="http://www.w3.org/2000/svg"
  viewBox="0 0 764.000000 764.000000"
 preserveAspectRatio="xMidYMid meet">
<metadata>
Created by potrace 1.16, written by Peter Selinger 2001-2019
</metadata>
<g transform="translate(0.000000,764.000000) scale(0.100000,-0.100000)"
fill="#3FB950" stroke="none">
<path d="M3215 7100 c-64 -42 -65 -49 -65 -427 0 -283 -2 -343 -14 -343 -54 0
-401 -139 -541 -218 l-70 -39 -245 242 c-265 262 -270 265 -347 239 -52 -18
-839 -804 -852 -851 -20 -71 -5 -92 249 -348 l237 -240 -30 -50 c-55 -91 -135
-278 -184 -427 l-48 -148 -340 0 c-381 0 -390 -2 -427 -71 -17 -31 -18 -71
-18 -597 0 -538 1 -564 20 -601 35 -70 44 -71 427 -71 l338 0 28 -92 c48 -159
149 -391 218 -504 l19 -31 -230 -229 c-153 -151 -238 -243 -252 -272 -41 -85
-46 -79 404 -526 253 -251 414 -404 436 -413 74 -31 85 -23 352 241 l245 241
164 -82 c105 -52 218 -99 312 -130 l149 -48 0 -337 c0 -198 4 -347 10 -363 5
-14 22 -37 36 -50 l27 -25 596 0 c535 0 599 2 620 16 48 34 51 59 51 421 l0
338 122 38 c133 42 322 123 433 185 l70 39 245 -243 c206 -203 251 -243 281
-249 73 -14 98 7 516 426 438 442 435 437 395 521 -14 28 -101 123 -251 272
l-229 228 32 57 c82 144 195 420 220 539 l8 32 339 0 c367 0 389 3 422 53 16
24 17 77 17 620 l0 594 -25 27 c-13 14 -36 31 -50 36 -16 6 -166 10 -363 10
l-337 1 -53 163 c-34 105 -80 216 -129 315 l-76 152 240 242 c255 257 263 268
243 339 -8 24 -115 138 -418 441 -451 451 -443 446 -525 408 -28 -13 -115 -92
-271 -249 l-228 -230 -68 39 c-107 60 -264 128 -415 180 l-140 48 -5 348 c-5
378 -5 378 -63 413 -31 19 -55 20 -607 20 -556 0 -576 -1 -605 -20z m1015
-575 l0 -335 33 -35 c27 -30 48 -39 146 -65 204 -55 387 -131 572 -237 123
-71 139 -77 187 -68 31 6 74 44 270 238 l232 232 292 -293 293 -292 -232 -232
c-284 -286 -280 -276 -183 -435 98 -161 199 -401 246 -585 31 -125 40 -144 79
-168 31 -19 51 -20 364 -20 l331 0 0 -410 0 -410 -331 0 c-416 0 -393 10 -444
-189 -46 -184 -147 -423 -245 -584 -97 -159 -101 -149 183 -435 l231 -232
-289 -292 c-160 -161 -290 -294 -291 -295 0 -2 -99 97 -220 218 -290 292 -292
293 -452 197 -161 -97 -413 -202 -594 -249 -105 -27 -134 -42 -158 -82 -19
-30 -20 -52 -20 -359 l0 -328 -410 0 -410 0 0 331 c0 287 -2 335 -16 358 -23
40 -42 49 -178 86 -202 56 -378 129 -560 234 -57 33 -116 63 -131 67 -60 15
-102 -16 -333 -249 l-221 -223 -293 293 -293 293 227 227 c124 126 231 238
237 250 21 41 12 86 -30 158 -116 198 -203 400 -260 607 -17 62 -38 125 -45
140 -29 56 -43 58 -404 58 l-330 0 0 410 0 410 333 0 c309 0 334 1 363 19 35
21 47 48 88 199 52 189 126 361 235 552 65 113 75 155 45 200 -9 14 -116 125
-238 248 l-221 222 292 292 293 293 227 -227 c126 -125 241 -232 256 -237 51
-20 81 -12 187 50 198 115 367 187 576 244 68 19 132 39 143 45 48 25 51 47
51 400 l0 330 410 0 410 0 0 -335z"/>
<path d="M3670 5304 c-14 -2 -59 -9 -100 -15 -183 -27 -404 -116 -584 -236
-129 -86 -308 -263 -395 -391 -114 -168 -190 -347 -233 -545 -29 -137 -32
-436 -5 -570 120 -599 574 -1059 1170 -1188 136 -29 362 -36 504 -15 325 48
610 192 844 425 216 216 346 455 411 754 30 138 32 447 4 577 -68 317 -191
546 -416 771 -219 219 -451 346 -748 409 -93 20 -387 36 -452 24z m347 -269
c128 -21 241 -58 363 -121 123 -63 197 -117 299 -216 339 -332 458 -829 305
-1277 -63 -184 -171 -349 -321 -492 -160 -151 -333 -247 -541 -300 -408 -104
-834 7 -1141 297 -356 337 -478 821 -325 1289 136 418 514 741 959 819 107 19
289 19 402 1z"/>
</g>
</svg>
