<?xml version="1.0" standalone="no"?>
<!DOCTYPE svg PUBLIC "-//W3C//DTD SVG 20010904//EN"
 "http://www.w3.org/TR/2001/REC-SVG-20010904/DTD/svg10.dtd">
<svg version="1.0" xmlns="http://www.w3.org/2000/svg"
  viewBox="0 0 1082.000000 1082.000000"
 preserveAspectRatio="xMidYMid meet">
<metadata>
Created by potrace 1.16, written by Peter Selinger 2001-2019
</metadata>
<g transform="translate(0.000000,1082.000000) scale(0.100000,-0.100000)"
fill="#3FB950" stroke="none">
<path d="M2481 10065 c-298 -65 -558 -238 -722 -482 -71 -105 -135 -243 -166
-360 -24 -89 -27 -115 -27 -283 0 -169 2 -193 26 -282 111 -408 421 -723 823
-833 l80 -22 3 -624 2 -624 -86 -22 c-314 -81 -588 -305 -738 -601 -100 -198
-140 -480 -101 -708 75 -428 394 -786 810 -909 50 -15 96 -29 103 -31 10 -3
12 -133 10 -625 l-3 -622 -95 -26 c-394 -111 -698 -419 -806 -816 -25 -92 -27
-115 -28 -285 0 -168 3 -194 26 -281 55 -204 150 -372 292 -517 143 -148 280
-234 466 -296 143 -47 241 -60 419 -53 147 5 217 19 349 67 202 75 411 235
534 410 158 225 237 517 208 776 -36 334 -197 619 -458 812 -131 97 -261 156
-439 202 l-43 11 0 619 0 619 43 11 c232 60 403 156 562 315 96 95 160 182
219 298 38 76 85 205 101 280 l5 27 101 0 c520 0 1060 224 1362 565 152 171
219 303 316 620 127 416 593 703 1191 732 l125 6 22 -88 c27 -105 105 -273
169 -362 367 -515 1058 -651 1577 -310 127 82 254 209 337 335 77 116 120 212
158 351 23 87 26 113 26 281 0 169 -3 194 -27 283 -116 432 -454 750 -897 843
-114 23 -334 23 -445 0 -374 -81 -652 -293 -815 -621 -34 -67 -70 -158 -82
-206 l-22 -86 -146 -6 c-326 -15 -591 -81 -851 -213 -162 -82 -291 -175 -409
-294 -165 -166 -268 -345 -334 -580 -63 -222 -150 -365 -304 -496 -231 -198
-543 -310 -918 -330 l-129 -7 -28 98 c-69 245 -217 464 -416 616 -89 68 -286
163 -396 192 l-90 24 -3 621 -2 621 37 10 c21 5 58 15 82 21 80 21 218 86 308
145 103 69 260 222 321 315 203 307 252 665 140 1010 -124 384 -457 679 -863
765 -91 19 -375 19 -464 0z"/>
</g>
</svg>
