<?xml version="1.0" standalone="no"?>
<!DOCTYPE svg PUBLIC "-//W3C//DTD SVG 20010904//EN"
 "http://www.w3.org/TR/2001/REC-SVG-20010904/DTD/svg10.dtd">
<svg version="1.0" xmlns="http://www.w3.org/2000/svg"
  viewBox="0 0 713.000000 713.000000"
 preserveAspectRatio="xMidYMid meet">
<metadata>
Created by potrace 1.16, written by Peter Selinger 2001-2019
</metadata>
<g transform="translate(0.000000,713.000000) scale(0.100000,-0.100000)"
fill="#3FB950" stroke="none">
<path d="M3430 6633 c-482 -26 -925 -157 -1335 -393 -584 -336 -1032 -819
-1316 -1415 -367 -772 -378 -1685 -30 -2465 160 -359 362 -651 656 -946 283
-284 536 -467 870 -629 308 -148 611 -237 955 -280 143 -17 506 -20 645 -5
706 79 1349 393 1866 912 476 477 770 1058 876 1728 23 147 26 662 4 805 -50
338 -132 612 -266 893 -367 768 -1038 1366 -1842 1645 -323 112 -735 169
-1083 150z m285 -285 c215 -71 455 -341 660 -744 68 -135 169 -373 161 -381
-24 -24 -349 -94 -556 -120 -197 -24 -628 -24 -819 0 -197 25 -535 98 -557
120 -8 7 86 228 156 367 116 232 235 409 366 549 200 212 382 277 589 209z
m-812 -60 c-6 -7 -31 -39 -56 -71 -147 -182 -353 -549 -455 -809 -33 -83 -45
-102 -59 -100 -53 10 -341 150 -477 232 -181 109 -179 86 -21 214 283 230 619
409 970 517 104 32 111 33 98 17z m1517 -45 c315 -105 614 -269 879 -484 57
-46 114 -92 125 -101 11 -9 19 -19 16 -21 -14 -14 -207 -131 -280 -170 -86
-46 -264 -128 -332 -152 l-36 -13 -32 81 c-122 309 -294 617 -455 817 -34 42
-65 82 -69 88 -10 17 15 11 184 -45z m-2497 -1032 c83 -43 195 -96 247 -117
l96 -38 -33 -111 c-61 -203 -124 -521 -157 -785 -15 -123 -36 -374 -36 -437
l0 -33 -643 0 -643 0 3 38 c43 500 188 932 445 1330 66 102 178 249 261 343
l49 57 129 -85 c71 -46 198 -119 282 -162z m3808 127 c376 -454 607 -1011 646
-1557 l6 -91 -641 0 -640 0 -7 108 c-25 410 -79 750 -176 1106 -22 81 -38 151
-35 153 3 3 49 23 103 45 148 60 373 179 513 273 69 46 126 84 127 84 2 1 48
-54 104 -121z m-2901 -438 c542 -109 1113 -97 1649 36 78 20 147 32 151 27 4
-4 24 -69 44 -143 82 -308 140 -674 162 -1022 l6 -108 -1271 0 -1271 0 0 43
c0 66 19 267 40 442 30 238 89 517 166 786 4 14 14 13 92 -8 48 -13 152 -37
232 -53z m-786 -1582 c24 -401 87 -788 187 -1140 21 -76 39 -140 39 -143 0 -2
-76 -43 -169 -90 -168 -85 -368 -205 -474 -284 -31 -22 -60 -41 -65 -41 -14 0
-177 189 -263 305 -314 424 -505 940 -542 1463 l-3 42 642 0 641 0 7 -112z
m2792 0 c-23 -372 -79 -713 -173 -1056 -33 -122 -38 -133 -57 -129 -12 2 -68
18 -126 35 -229 67 -452 104 -741 123 -353 22 -781 -30 -1114 -135 -58 -19
-107 -31 -109 -27 -2 3 -22 74 -45 156 -88 327 -142 662 -167 1043 l-7 102
1273 0 1273 0 -7 -112z m1547 80 c-19 -233 -56 -440 -107 -605 -128 -415 -350
-804 -638 -1117 l-54 -59 -159 105 c-162 107 -351 214 -482 274 -40 19 -73 37
-73 41 0 5 9 37 21 73 103 331 175 757 205 1218 l6 102 642 0 642 0 -3 -32z
m-2583 -1368 c176 -15 318 -38 474 -76 141 -34 266 -72 266 -80 0 -20 -109
-270 -172 -393 -264 -521 -565 -777 -860 -731 -154 23 -313 122 -438 272 -159
190 -338 510 -446 794 l-23 61 82 26 c355 112 759 158 1117 127z m-1399 -357
c105 -263 295 -601 436 -775 29 -38 50 -68 46 -68 -5 0 -62 18 -128 39 -355
115 -669 288 -942 517 l-62 52 67 45 c155 104 500 297 531 297 5 0 28 -48 52
-107z m2517 48 c156 -78 472 -270 472 -287 0 -1 -44 -37 -97 -80 -271 -215
-622 -400 -944 -498 -47 -14 -88 -26 -92 -26 -3 0 28 45 71 99 168 217 331
520 441 824 6 15 15 27 21 27 6 0 63 -27 128 -59z"/>
</g>
</svg>
