<?xml version="1.0" standalone="no"?>
<!DOCTYPE svg PUBLIC "-//W3C//DTD SVG 20010904//EN"
 "http://www.w3.org/TR/2001/REC-SVG-20010904/DTD/svg10.dtd">
<svg version="1.0" xmlns="http://www.w3.org/2000/svg"
  viewBox="0 0 950.000000 950.000000"
 preserveAspectRatio="xMidYMid meet">
<metadata>
Created by potrace 1.16, written by Peter Selinger 2001-2019
</metadata>
<g transform="translate(0.000000,950.000000) scale(0.100000,-0.100000)"
fill="#3FB950" stroke="none">
<path d="M1550 8843 c-8 -3 -23 -12 -32 -21 -17 -14 -18 -221 -18 -4072 0
-3918 1 -4057 18 -4073 17 -16 255 -17 3225 -17 l3206 0 20 26 21 27 0 4039 0
4040 -29 29 -29 29 -3184 -1 c-1751 0 -3190 -3 -3198 -6z m6280 -4093 l0
-3930 -3090 0 -3090 0 0 3930 0 3930 3090 0 3090 0 0 -3930z"/>
<path d="M1965 8305 l-25 -24 0 -3531 0 -3531 25 -24 24 -25 2751 0 2751 0 24
25 25 24 0 3531 0 3531 -25 24 -24 25 -2751 0 -2751 0 -24 -25z m2695 -315 l0
-170 -1170 0 c-1246 0 -1216 1 -1234 -45 -3 -9 -6 -326 -6 -705 l0 -688 31
-26 31 -26 1174 0 1174 0 0 -170 0 -170 -1280 0 -1280 0 0 1085 0 1085 1280 0
1280 0 0 -170z m2720 -915 l0 -1085 -1280 0 -1280 0 0 170 0 170 1170 0 c1246
0 1216 -1 1234 45 3 9 6 326 6 705 0 662 -1 689 -19 711 l-19 24 -1186 3
-1186 2 0 170 0 170 1280 0 1280 0 0 -1085z m-310 0 l0 -575 -2330 0 -2330 0
0 575 0 575 2330 0 2330 0 0 -575z m-2415 -1420 l0 -170 -1179 -3 -1180 -2
-23 -22 -23 -21 0 -687 0 -687 23 -21 23 -22 1180 -2 1179 -3 0 -170 0 -170
-1275 0 -1275 0 -3 1078 -2 1077 1277 -2 1278 -3 0 -170z m2723 -902 l-3
-1078 -1275 0 -1275 0 -3 173 -2 172 1182 0 1182 0 23 22 23 21 0 686 0 685
-22 23 -21 23 -1184 0 -1183 0 0 175 0 175 1280 0 1280 0 -2 -1077z m-308 -3
l0 -570 -2330 0 -2330 0 0 570 0 570 2330 0 2330 0 0 -570z m-2410 -1410 l0
-170 -1186 -2 -1186 -3 -19 -24 c-18 -22 -19 -49 -19 -700 l0 -678 23 -21 23
-21 1179 -3 1180 -3 3 -192 2 -193 -1280 0 -1280 0 0 1090 0 1090 1280 0 1280
0 0 -170z m2720 -920 l0 -1090 -1280 0 -1280 0 2 192 3 191 1178 2 1177 2 25
23 25 23 0 678 c0 651 -1 678 -19 700 l-19 24 -1186 3 -1186 2 0 170 0 170
1280 0 1280 0 0 -1090z m-310 20 l0 -560 -2330 0 -2330 0 0 560 0 560 2330 0
2330 0 0 -560z"/>
<path d="M4711 7489 c-51 -20 -50 -18 -51 -417 l0 -373 25 -24 c15 -16 36 -25
55 -25 19 0 40 9 55 25 l25 24 0 373 c-1 393 -1 392 -47 416 -25 14 -30 14
-62 1z"/>
<path d="M5215 7419 c-45 -25 -45 -29 -45 -346 l0 -304 25 -24 c15 -16 36 -25
55 -25 19 0 40 9 55 25 l25 24 0 304 c0 276 -2 307 -17 326 -22 25 -71 35 -98
20z"/>
<path d="M5520 7417 c-48 -24 -51 -40 -48 -355 l3 -294 28 -24 c45 -38 98 -31
122 17 12 23 15 83 15 319 l0 292 -29 29 c-32 32 -53 35 -91 16z"/>
<path d="M5810 7402 l-31 -31 3 -307 3 -306 24 -19 c33 -27 82 -25 111 6 23
25 23 27 26 302 4 341 -1 365 -74 379 -26 5 -36 1 -62 -24z"/>
<path d="M6133 7420 c-12 -5 -26 -18 -32 -29 -7 -13 -11 -127 -11 -321 l0
-301 25 -24 c15 -16 36 -25 55 -25 19 0 40 9 55 25 l25 24 0 300 c0 165 -3
307 -6 316 -7 17 -55 45 -76 44 -7 0 -23 -4 -35 -9z"/>
<path d="M6440 7417 c-48 -24 -50 -40 -48 -354 l3 -291 24 -26 c30 -32 78 -34
112 -7 l24 19 3 306 3 307 -30 29 c-32 33 -53 36 -91 17z"/>
<path d="M6743 7418 c-41 -20 -44 -48 -41 -362 l3 -298 24 -19 c31 -25 81 -24
109 1 22 21 22 25 22 329 0 279 -2 311 -17 330 -21 25 -70 35 -100 19z"/>
<path d="M2641 7304 c-20 -25 -21 -39 -21 -229 0 -190 1 -204 21 -229 l20 -26
213 0 c279 0 256 -24 256 256 0 277 24 254 -257 254 l-212 0 -20 -26z m329
-229 l0 -95 -95 0 -95 0 0 95 0 95 95 0 95 0 0 -95z"/>
<path d="M3330 7075 l0 -86 81 3 81 3 0 68 c-1 37 -1 74 -1 82 -1 12 -17 15
-81 15 l-80 0 0 -85z"/>
<path d="M4703 5160 c-12 -5 -26 -18 -32 -29 -7 -13 -11 -145 -11 -384 0 -343
1 -366 19 -388 27 -33 95 -33 122 0 18 22 19 45 19 386 0 200 -3 371 -6 380
-7 17 -55 45 -76 44 -7 0 -23 -4 -35 -9z"/>
<path d="M5195 5075 l-25 -24 0 -301 0 -301 25 -24 c15 -16 36 -25 55 -25 19
0 40 9 55 25 l25 24 0 301 0 301 -25 24 c-15 16 -36 25 -55 25 -19 0 -40 -9
-55 -25z"/>
<path d="M5503 5076 l-28 -24 0 -302 0 -302 28 -24 c34 -29 76 -31 108 -5 l24
19 3 301 3 302 -30 29 c-36 37 -70 38 -108 6z"/>
<path d="M5823 5088 c-41 -20 -44 -49 -41 -357 l3 -293 24 -19 c34 -28 82 -25
112 7 l24 26 -3 301 -2 302 -26 23 c-27 24 -56 27 -91 10z"/>
<path d="M6115 5075 l-25 -24 0 -305 0 -305 26 -20 c36 -28 79 -27 109 4 l25
24 0 301 0 301 -25 24 c-15 16 -36 25 -55 25 -19 0 -40 -9 -55 -25z"/>
<path d="M6423 5076 l-28 -24 -3 -284 c-2 -155 0 -293 3 -305 8 -33 45 -63 76
-63 85 0 89 15 89 350 0 286 -3 309 -39 337 -26 20 -68 15 -98 -11z"/>
<path d="M6743 5088 c-41 -20 -44 -49 -41 -357 l3 -293 24 -19 c32 -26 82 -25
109 4 22 23 22 29 22 326 l0 302 -25 24 c-25 26 -56 31 -92 13z"/>
<path d="M2645 4985 c-25 -24 -25 -24 -25 -235 0 -282 -22 -260 259 -260 l210
0 20 26 c20 25 21 39 21 236 0 279 21 258 -255 258 -205 0 -206 0 -230 -25z
m325 -235 l0 -100 -95 0 -95 0 0 100 0 100 95 0 95 0 0 -100z"/>
<path d="M3330 4750 l0 -80 80 0 80 0 0 80 0 80 -80 0 -80 0 0 -80z"/>
<path d="M4685 2825 l-25 -24 0 -356 c0 -209 4 -364 10 -374 16 -31 65 -46
100 -31 17 7 35 21 40 31 6 10 10 165 10 374 l0 356 -25 24 c-32 33 -78 33
-110 0z"/>
<path d="M5214 2776 c-17 -8 -34 -21 -38 -31 -3 -9 -6 -148 -6 -308 1 -313 1
-317 53 -336 32 -13 83 3 97 29 11 20 14 587 4 615 -6 15 -54 45 -71 45 -4 -1
-22 -7 -39 -14z"/>
<path d="M5525 2781 c-47 -20 -48 -28 -53 -311 -4 -333 1 -361 76 -376 26 -5
36 -1 62 24 l30 30 0 291 c0 287 0 290 -22 315 -26 29 -63 39 -93 27z"/>
<path d="M5810 2762 l-30 -30 0 -292 0 -292 30 -30 c26 -25 36 -29 63 -24 18
4 41 16 52 27 19 18 20 32 18 202 -1 100 -2 234 -2 298 -1 131 -10 154 -68
165 -27 5 -37 1 -63 -24z"/>
<path d="M6135 2778 c-44 -24 -45 -28 -45 -334 0 -161 3 -300 6 -309 10 -25
62 -47 95 -40 58 13 59 21 59 345 -1 310 -1 314 -47 338 -27 15 -42 15 -68 0z"/>
<path d="M6440 2777 c-48 -24 -50 -41 -48 -349 3 -272 4 -289 23 -307 11 -12
34 -23 52 -27 27 -5 37 -1 63 24 l30 30 0 292 0 292 -29 29 c-32 32 -53 35
-91 16z"/>
<path d="M6754 2780 c-52 -21 -54 -33 -54 -342 l0 -287 24 -27 c31 -37 90 -39
117 -5 18 22 19 45 19 321 0 269 -2 300 -17 318 -21 25 -60 35 -89 22z"/>
<path d="M2645 2675 c-25 -24 -25 -24 -25 -232 1 -148 4 -213 13 -224 27 -35
54 -39 252 -39 265 0 245 -21 245 260 0 282 21 260 -255 260 -205 0 -206 0
-230 -25z m325 -230 l0 -95 -95 0 -95 0 0 95 0 95 95 0 95 0 0 -95z"/>
<path d="M3337 2523 c-4 -3 -7 -42 -7 -85 l0 -78 80 0 80 0 0 85 0 85 -73 0
c-41 0 -77 -3 -80 -7z"/>
</g>
</svg>
