<?xml version="1.0" standalone="no"?>
<!DOCTYPE svg PUBLIC "-//W3C//DTD SVG 20010904//EN"
 "http://www.w3.org/TR/2001/REC-SVG-20010904/DTD/svg10.dtd">
<svg version="1.0" xmlns="http://www.w3.org/2000/svg"
  viewBox="0 0 690.000000 690.000000"
 preserveAspectRatio="xMidYMid meet">
<metadata>
Created by potrace 1.16, written by Peter Selinger 2001-2019
</metadata>
<g transform="translate(0.000000,690.000000) scale(0.100000,-0.100000)"
fill="#3FB950" stroke="none">
<path d="M3325 6419 c-582 -34 -1136 -363 -1460 -869 -66 -102 -167 -315 -205
-430 -44 -134 -78 -312 -90 -470 -5 -74 -10 -316 -10 -537 l0 -403 -140 0
c-161 0 -193 -10 -216 -65 -12 -29 -14 -263 -14 -1550 0 -1634 -2 -1561 51
-1599 22 -15 205 -16 2210 -16 l2187 0 31 26 31 26 0 1558 0 1559 -24 28 -24
28 -155 3 -155 3 -5 497 c-4 549 -8 594 -71 824 -180 655 -697 1165 -1351
1333 -197 50 -370 66 -590 54z m335 -219 c546 -68 1034 -417 1280 -915 96
-195 143 -353 169 -565 6 -48 11 -284 11 -547 l0 -463 -140 0 -140 0 0 443 c0
468 -7 571 -50 731 -65 245 -198 467 -388 648 -203 192 -448 316 -721 362
-121 20 -340 21 -457 1 -545 -94 -986 -503 -1118 -1036 -39 -157 -46 -273 -46
-730 l0 -419 -140 0 -140 0 0 471 c0 375 3 493 16 578 56 385 207 685 483 961
269 269 559 417 930 475 106 16 337 19 451 5z m-20 -516 c431 -74 774 -364
919 -776 57 -162 61 -215 61 -730 l0 -468 -1171 0 -1170 0 3 503 4 502 26 98
c58 213 163 395 312 543 150 149 307 240 512 299 165 47 340 57 504 29z m1850
-3589 l0 -1405 -2040 0 -2040 0 0 1405 0 1405 2040 0 2040 0 0 -1405z"/>
</g>
</svg>
