<?xml version="1.0" standalone="no"?>
<!DOCTYPE svg PUBLIC "-//W3C//DTD SVG 20010904//EN"
 "http://www.w3.org/TR/2001/REC-SVG-20010904/DTD/svg10.dtd">
<svg version="1.0" xmlns="http://www.w3.org/2000/svg"
  viewBox="0 0 989.000000 989.000000"
 preserveAspectRatio="xMidYMid meet">
<metadata>
Created by potrace 1.16, written by Peter Selinger 2001-2019
</metadata>
<g transform="translate(0.000000,989.000000) scale(0.100000,-0.100000)"
fill="#3FB950" stroke="none">
<path d="M744 7591 c-18 -11 -39 -30 -48 -42 -15 -21 -16 -243 -16 -2600 l0
-2577 25 -31 c14 -16 45 -37 68 -46 38 -14 414 -15 4189 -13 l4147 3 28 21
c15 11 38 36 51 54 l22 33 0 2549 c0 2546 0 2549 -20 2589 -12 22 -35 49 -53
59 -32 20 -80 20 -4197 20 -4082 0 -4166 0 -4196 -19z m7600 -300 c-5 -5 -99
-66 -209 -137 -194 -123 -565 -361 -1195 -762 -397 -253 -950 -605 -1532 -976
l-468 -297 -117 77 c-65 43 -183 119 -263 169 -80 51 -476 303 -880 560 -1154
735 -1196 762 -1365 870 -559 354 -771 489 -779 497 -6 4 1526 8 3404 8 2008
0 3410 -4 3404 -9z m-6650 -468 c385 -246 755 -481 821 -523 557 -354 1252
-798 1353 -863 l124 -80 -34 -33 c-18 -17 -481 -415 -1028 -884 -547 -468
-1098 -940 -1224 -1048 -224 -192 -435 -372 -623 -533 -51 -44 -95 -79 -98
-79 -3 0 -5 1010 -5 2245 0 1235 3 2245 6 2245 3 0 322 -201 708 -447z m7206
-1798 c0 -1235 -2 -2245 -4 -2245 -6 0 -129 105 -672 570 -247 212 -766 657
-1154 989 -1087 931 -1182 1013 -1173 1021 4 4 85 56 178 115 94 60 224 143
290 185 66 42 293 187 505 322 566 360 1372 875 1715 1094 165 106 303 193
308 193 4 1 7 -1009 7 -2244z m-4549 107 c154 -101 488 -311 515 -325 29 -15
58 -20 105 -18 21 1 364 211 597 365 38 26 44 27 60 14 9 -8 49 -41 87 -75 39
-33 480 -410 980 -839 501 -428 1139 -974 1418 -1214 l508 -435 -1841 -3
c-1012 -1 -2669 -1 -3681 0 l-1841 3 194 165 c107 91 392 335 634 542 1594
1367 2180 1868 2185 1868 3 0 39 -22 80 -48z"/>
</g>
</svg>
