<?xml version="1.0" standalone="no"?>
<!DOCTYPE svg PUBLIC "-//W3C//DTD SVG 20010904//EN"
 "http://www.w3.org/TR/2001/REC-SVG-20010904/DTD/svg10.dtd">
<svg version="1.0" xmlns="http://www.w3.org/2000/svg"
  viewBox="0 0 697.000000 697.000000"
 preserveAspectRatio="xMidYMid meet">
<metadata>
Created by potrace 1.16, written by Peter Selinger 2001-2019
</metadata>
<g transform="translate(0.000000,697.000000) scale(0.100000,-0.100000)"
fill="#3FB950" stroke="none">
<path d="M2369 6471 l-24 -19 -5 -1018 -5 -1018 -85 -65 c-47 -36 -139 -119
-205 -185 -326 -327 -535 -738 -610 -1196 -24 -149 -21 -563 5 -717 27 -160
62 -284 122 -433 266 -671 840 -1163 1528 -1311 88 -19 144 -23 349 -27 152
-2 274 0 325 8 195 27 478 120 646 212 506 276 888 746 1051 1293 99 331 117
731 48 1065 -72 354 -237 698 -463 968 -85 103 -243 254 -338 326 -68 51 -78
62 -78 90 0 17 -1 471 -3 1008 -2 975 -2 977 -23 1005 -17 23 -30 29 -71 31
-46 3 -53 0 -77 -28 l-26 -32 0 -943 0 -944 -87 41 c-49 23 -128 56 -178 74
l-90 32 -5 873 c-5 905 -5 907 -46 923 -38 15 -95 6 -119 -19 l-25 -24 0 -852
0 -851 -32 6 c-193 35 -483 41 -650 13 -54 -10 -102 -17 -108 -17 -7 0 -10
284 -10 850 l0 851 -25 24 c-35 36 -106 35 -140 -1 l-25 -27 -2 -874 -3 -874
-100 -38 c-55 -21 -133 -54 -172 -75 -40 -20 -75 -36 -78 -36 -3 0 -5 423 -5
941 0 969 0 966 -39 996 -25 19 -95 16 -122 -6z m1406 -1914 c379 -71 696
-233 967 -496 126 -121 192 -199 282 -335 512 -773 418 -1815 -223 -2479 -227
-235 -463 -387 -756 -486 -214 -72 -298 -85 -555 -85 -195 -1 -240 2 -336 22
-580 117 -1063 492 -1337 1038 -376 748 -240 1657 337 2261 170 178 326 293
541 398 186 91 365 146 575 175 93 13 410 5 505 -13z"/>
<path d="M3425 3887 c-17 -14 -87 -152 -203 -402 l-177 -379 -400 -53 c-220
-29 -411 -55 -423 -58 -42 -10 -72 -50 -72 -94 0 -44 -1 -43 433 -457 177
-168 188 -181 183 -209 -3 -16 -37 -202 -76 -412 -38 -210 -70 -391 -70 -402
0 -29 46 -79 79 -86 36 -8 36 -7 459 226 l323 179 107 -59 c410 -229 639 -351
657 -351 11 0 34 9 52 20 55 33 54 49 -31 503 l-77 411 43 41 c250 233 566
544 576 568 11 25 10 34 -5 65 -10 21 -29 42 -43 49 -14 6 -198 34 -410 62
-212 28 -397 54 -411 57 -23 4 -35 23 -82 127 -31 67 -99 214 -152 327 -54
113 -108 228 -120 256 -41 89 -106 118 -160 71z m145 -500 c196 -424 206 -443
237 -455 23 -10 384 -62 598 -88 33 -4 67 -9 76 -13 12 -4 -48 -66 -227 -236
-134 -126 -248 -242 -255 -258 -15 -34 -11 -60 56 -421 30 -160 53 -292 51
-294 -2 -2 -139 71 -303 162 -164 91 -309 166 -322 166 -13 0 -158 -75 -323
-166 -164 -92 -300 -165 -302 -163 -2 2 22 148 55 324 32 176 59 337 59 357 0
44 -10 55 -302 332 -204 193 -206 195 -175 201 18 3 169 23 337 45 168 22 315
45 328 50 24 10 102 164 253 497 35 79 66 143 69 143 3 0 43 -82 90 -183z"/>
</g>
</svg>
