<?xml version="1.0" standalone="no"?>
<!DOCTYPE svg PUBLIC "-//W3C//DTD SVG 20010904//EN"
 "http://www.w3.org/TR/2001/REC-SVG-20010904/DTD/svg10.dtd">
<svg version="1.0" xmlns="http://www.w3.org/2000/svg"
  viewBox="0 0 950.000000 950.000000"
 preserveAspectRatio="xMidYMid meet">
<metadata>
Created by potrace 1.16, written by Peter Selinger 2001-2019
</metadata>
<g transform="translate(0.000000,950.000000) scale(0.100000,-0.100000)"
fill="#3FB950" stroke="none">
<path d="M732 7873 c-18 -9 -43 -30 -55 -47 l-22 -31 -3 -3020 c-1 -1661 0
-3034 3 -3052 3 -18 21 -48 39 -68 l33 -35 4023 0 4022 0 34 34 34 34 0 3054
c0 2969 -1 3054 -19 3084 -10 17 -34 38 -54 47 -33 16 -318 17 -4019 17 -3649
0 -3986 -2 -4016 -17z m7838 -3123 l0 -2860 -3820 0 -3820 0 0 2860 0 2860
3820 0 3820 0 0 -2860z"/>
<path d="M1396 7200 c-41 -13 -84 -58 -96 -99 -6 -23 -10 -858 -10 -2356 0
-2230 1 -2322 19 -2360 10 -22 28 -49 41 -60 22 -20 38 -20 3396 -23 l3373 -2
35 31 c20 17 40 47 46 67 6 25 10 813 10 2357 l0 2321 -22 44 c-13 24 -36 53
-51 64 l-28 21 -3342 2 c-1871 1 -3355 -2 -3371 -7z m6534 -2450 l0 -2170
-3180 0 -3180 0 0 2170 0 2170 3180 0 3180 0 0 -2170z"/>
<path d="M7157 6170 c-32 -28 -278 -339 -874 -1109 -139 -179 -257 -326 -262
-326 -5 0 -149 183 -320 406 -170 223 -322 414 -338 424 -36 24 -111 25 -145
3 -15 -10 -92 -105 -171 -210 -182 -245 -682 -920 -815 -1101 l-101 -137 -34
42 c-18 24 -114 149 -213 278 -99 129 -224 292 -277 362 -54 70 -109 136 -123
147 -40 31 -87 36 -131 15 -43 -22 -61 -42 -551 -644 -190 -234 -415 -509
-499 -613 -84 -103 -161 -202 -169 -221 -24 -49 -11 -101 36 -148 33 -34 43
-38 86 -38 30 0 60 7 76 18 28 18 37 29 273 322 82 102 175 217 206 255 32 39
176 214 319 390 144 176 264 321 268 322 4 1 59 -67 123 -150 500 -652 517
-674 551 -688 46 -19 105 -15 136 8 15 11 110 132 212 269 102 138 275 371
385 520 109 148 263 356 341 461 l143 193 98 -128 c55 -70 189 -244 298 -387
109 -143 210 -273 224 -288 54 -59 120 -73 177 -38 17 10 116 129 221 262 282
364 634 814 771 989 264 336 294 377 299 419 4 29 0 49 -17 78 -28 51 -66 73
-124 73 -36 0 -52 -6 -79 -30z"/>
</g>
</svg>
