<?xml version="1.0" standalone="no"?>
<!DOCTYPE svg PUBLIC "-//W3C//DTD SVG 20010904//EN"
 "http://www.w3.org/TR/2001/REC-SVG-20010904/DTD/svg10.dtd">
<svg version="1.0" xmlns="http://www.w3.org/2000/svg"
  viewBox="0 0 892.000000 892.000000"
 preserveAspectRatio="xMidYMid meet">
<metadata>
Created by potrace 1.16, written by Peter Selinger 2001-2019
</metadata>
<g transform="translate(0.000000,892.000000) scale(0.100000,-0.100000)"
fill="#3FB950" stroke="none">
<path d="M1499 8281 l-29 -29 0 -3782 0 -3782 31 -29 31 -29 2917 0 c2627 0
2919 2 2939 16 56 39 52 -251 52 3819 0 4059 4 3791 -53 3828 -25 16 -212 17
-2942 17 l-2917 0 -29 -29z m5721 -3811 l0 -3630 -2770 0 -2770 0 0 3630 0
3630 2770 0 2770 0 0 -3630z"/>
<path d="M2243 7039 c-17 -5 -41 -21 -52 -35 -21 -26 -21 -36 -21 -586 l0
-560 30 -28 c20 -18 44 -30 72 -33 24 -3 262 -4 529 -3 442 1 488 3 512 19 14
9 31 25 36 35 6 11 11 236 13 570 3 545 3 551 -18 579 -11 15 -36 33 -55 40
-42 15 -996 16 -1046 2z m907 -619 l0 -410 -385 0 -385 0 0 410 0 410 385 0
385 0 0 -410z"/>
<path d="M3935 7042 c-31 -11 -50 -25 -68 -52 -15 -22 -17 -74 -17 -568 0
-595 -1 -582 58 -614 39 -20 1048 -19 1086 2 57 30 56 22 56 609 0 387 -3 547
-12 565 -6 14 -23 34 -37 43 -24 17 -67 18 -536 20 -280 1 -519 -2 -530 -5z
m895 -622 l0 -410 -385 0 -385 0 0 410 1 410 384 0 385 0 0 -410z"/>
<path d="M5613 7039 c-17 -5 -41 -21 -52 -35 -21 -26 -21 -36 -21 -585 l0
-557 30 -31 c24 -23 43 -31 87 -37 32 -4 270 -5 530 -2 415 5 476 7 497 22 52
33 51 23 51 608 0 539 0 547 -21 575 -11 15 -36 33 -55 40 -42 15 -996 16
-1046 2z m907 -619 l0 -410 -385 0 -385 0 0 410 0 410 385 0 385 0 0 -410z"/>
<path d="M2201 5061 l-31 -29 0 -559 c0 -514 2 -560 18 -579 39 -49 41 -49
492 -50 234 -1 472 1 528 5 96 6 106 8 126 32 l23 26 6 537 c3 325 1 550 -4
571 -5 19 -21 43 -36 55 -25 20 -37 20 -558 20 l-533 0 -31 -29z m949 -591 l0
-410 -385 0 -385 0 0 410 0 410 385 0 385 0 0 -410z"/>
<path d="M3894 5072 c-12 -9 -27 -27 -33 -39 -8 -15 -11 -185 -11 -568 l0
-547 33 -33 c25 -25 44 -34 82 -39 28 -3 264 -5 525 -3 520 2 521 2 548 62 9
19 12 169 12 566 0 487 -2 544 -17 569 -9 16 -27 33 -40 39 -16 8 -193 11
-551 11 -484 0 -529 -2 -548 -18z m936 -602 l0 -410 -384 0 -385 0 0 410 -1
410 385 0 385 0 0 -410z"/>
<path d="M5571 5059 l-31 -31 0 -549 c0 -455 2 -555 14 -577 30 -58 23 -57
585 -56 552 0 545 0 579 51 15 25 17 71 20 528 2 275 1 524 -3 552 -5 40 -14
60 -36 83 l-31 30 -533 0 -533 0 -31 -31z m949 -589 l0 -410 -385 0 -385 0 0
410 0 410 385 0 385 0 0 -410z"/>
<path d="M2214 3122 c-12 -9 -27 -27 -33 -39 -8 -15 -11 -185 -11 -568 0 -535
0 -548 20 -576 12 -16 36 -33 58 -39 23 -6 221 -10 525 -10 525 0 538 1 570
52 13 19 16 107 20 558 2 294 0 549 -5 567 -5 18 -20 41 -35 53 -25 20 -37 20
-557 20 -488 0 -533 -2 -552 -18z m936 -602 l0 -410 -385 0 -385 0 0 410 0
410 385 0 385 0 0 -410z"/>
<path d="M3904 3129 c-11 -6 -28 -23 -37 -39 -15 -25 -17 -82 -17 -570 0 -493
2 -545 17 -571 36 -60 32 -60 595 -57 471 3 515 4 539 21 14 9 31 29 37 43 17
35 17 1096 1 1127 -6 12 -21 30 -33 39 -19 16 -63 18 -551 17 -335 0 -538 -4
-551 -10z m926 -609 l0 -410 -385 0 -385 0 0 410 0 410 385 0 385 0 0 -410z"/>
<path d="M5584 3122 c-12 -9 -27 -27 -33 -39 -8 -15 -11 -186 -11 -571 0 -538
0 -550 20 -575 12 -15 38 -31 58 -37 23 -6 221 -10 525 -10 531 0 537 1 574
56 17 26 18 64 21 539 2 280 0 530 -3 554 -5 29 -16 54 -35 73 l-28 28 -534 0
c-490 0 -535 -2 -554 -18z m936 -602 l0 -410 -385 0 -385 0 0 410 0 410 385 0
385 0 0 -410z"/>
</g>
</svg>
