<?xml version="1.0" standalone="no"?>
<!DOCTYPE svg PUBLIC "-//W3C//DTD SVG 20010904//EN"
 "http://www.w3.org/TR/2001/REC-SVG-20010904/DTD/svg10.dtd">
<svg version="1.0" xmlns="http://www.w3.org/2000/svg"
  viewBox="0 0 892.000000 892.000000"
 preserveAspectRatio="xMidYMid meet">
<metadata>
Created by potrace 1.16, written by Peter Selinger 2001-2019
</metadata>
<g transform="translate(0.000000,892.000000) scale(0.100000,-0.100000)"
fill="#3FB950" stroke="none">
<path d="M2432 6680 c-533 -75 -948 -473 -1038 -995 -24 -135 -15 -358 19
-488 54 -203 147 -370 292 -525 87 -92 182 -170 273 -224 l43 -25 -63 -23
c-148 -54 -324 -151 -467 -258 -103 -77 -297 -267 -381 -372 -297 -373 -478
-848 -497 -1305 -6 -151 2 -191 46 -215 27 -14 7555 -14 7582 0 37 20 49 63
49 172 -1 451 -201 983 -514 1368 -216 265 -524 494 -808 600 l-87 33 57 34
c295 178 504 479 568 821 31 168 17 394 -37 568 -93 300 -325 571 -614 716
-79 40 -228 90 -325 109 -106 21 -357 16 -465 -8 -251 -59 -463 -177 -629
-353 -215 -229 -326 -508 -326 -825 0 -317 112 -596 329 -819 94 -96 166 -156
254 -209 l57 -34 -88 -32 c-178 -67 -363 -179 -545 -331 -263 -220 -512 -580
-633 -915 -25 -70 -34 -86 -40 -70 -147 397 -361 722 -631 960 -179 157 -436
313 -611 370 l-53 17 58 35 c193 116 377 317 472 515 135 283 150 631 41 930
-101 277 -324 524 -595 660 -80 41 -199 81 -300 103 -85 19 -307 27 -393 15z
m358 -245 c357 -76 643 -348 737 -702 36 -136 38 -344 5 -477 -56 -224 -205
-439 -391 -565 -81 -56 -228 -124 -311 -146 -85 -22 -329 -32 -413 -16 -207
39 -378 132 -528 287 -283 293 -356 707 -188 1072 54 117 116 206 201 288 237
230 568 327 888 259z m3766 -10 c321 -82 573 -314 681 -630 190 -557 -166
-1154 -754 -1266 -95 -18 -330 -6 -422 20 -342 100 -599 362 -693 710 -17 60
-21 107 -22 226 0 133 3 161 26 247 49 174 138 326 265 449 164 160 337 239
598 273 64 9 234 -7 321 -29z m-3636 -2178 c138 -33 214 -59 338 -117 485
-229 861 -710 1012 -1296 26 -98 60 -302 60 -354 0 -20 -17 -20 -1741 -20
l-1742 0 6 83 c8 121 50 315 97 452 234 683 768 1168 1395 1270 143 23 440 14
575 -18z m3708 5 c459 -100 852 -391 1125 -832 66 -108 160 -308 200 -430 45
-135 87 -331 94 -443 l6 -87 -1742 0 c-1523 0 -1741 2 -1741 15 0 44 34 254
56 339 41 164 83 280 159 435 275 561 736 924 1290 1017 119 20 432 12 553
-14z"/>
</g>
</svg>
