<?xml version="1.0" standalone="no"?>
<!DOCTYPE svg PUBLIC "-//W3C//DTD SVG 20010904//EN"
 "http://www.w3.org/TR/2001/REC-SVG-20010904/DTD/svg10.dtd">
<svg version="1.0" xmlns="http://www.w3.org/2000/svg"
  viewBox="0 0 892.000000 892.000000"
 preserveAspectRatio="xMidYMid meet">
<metadata>
Created by potrace 1.16, written by Peter Selinger 2001-2019
</metadata>
<g transform="translate(0.000000,892.000000) scale(0.100000,-0.100000)"
fill="#3FB950" stroke="none">
<path d="M4375 8291 c-168 -102 -608 -518 -826 -781 -630 -760 -1024 -1685
-1139 -2680 -25 -215 -36 -612 -22 -810 10 -141 10 -146 -11 -175 -12 -16
-127 -174 -256 -350 -329 -448 -584 -797 -803 -1098 l-188 -258 0 -713 c0
-708 0 -713 21 -740 11 -14 34 -33 49 -41 69 -36 69 -36 783 311 370 180 738
360 819 400 81 41 150 70 153 65 3 -5 29 -74 59 -153 91 -243 203 -516 230
-562 48 -82 -45 -76 1211 -76 1221 0 1150 -3 1194 58 21 30 131 294 224 542
31 80 60 157 66 172 l10 27 293 -143 c1226 -599 1347 -656 1390 -656 52 0 101
28 128 72 19 32 20 52 20 721 0 599 -2 692 -15 718 -16 30 -578 802 -1120
1539 -154 208 -141 181 -134 290 11 149 10 511 -1 665 -87 1190 -607 2345
-1431 3176 -198 200 -477 442 -556 483 -43 21 -111 20 -148 -3z m205 -408
c406 -350 762 -787 1039 -1275 l32 -58 -1200 0 -1201 0 32 58 c209 374 486
739 800 1049 130 129 356 333 368 333 3 0 61 -48 130 -107z m1263 -1730 c217
-514 340 -1020 377 -1553 52 -749 -96 -1692 -428 -2730 l-59 -185 -1281 -3
-1281 -2 -61 187 c-217 672 -353 1304 -417 1938 -21 211 -24 721 -5 905 51
491 164 942 349 1389 30 75 60 142 66 149 7 9 290 12 1352 12 l1343 0 45 -107z
m-3389 -2785 c44 -337 195 -998 322 -1405 66 -211 78 -253 72 -259 -6 -5
-1152 -567 -1325 -649 l-113 -54 0 515 0 514 123 168 c117 158 442 603 757
1034 79 108 147 195 151 193 3 -3 9 -28 13 -57z m4077 -25 c35 -49 187 -257
338 -463 151 -206 353 -482 448 -612 l173 -238 0 -514 0 -514 -217 105 c-612
297 -1216 593 -1220 597 -3 3 18 78 45 168 151 487 250 898 322 1328 34 206
39 230 44 230 2 0 32 -39 67 -87z m-911 -1959 c0 -3 -41 -109 -91 -235 l-90
-229 -988 0 -988 0 -92 230 c-50 126 -91 232 -91 235 0 3 527 5 1170 5 644 0
1170 -3 1170 -6z"/>
<path d="M4308 5490 c-131 -21 -298 -81 -393 -142 -196 -125 -351 -314 -426
-519 -49 -134 -62 -210 -62 -359 -1 -150 18 -249 74 -388 84 -212 278 -422
486 -526 307 -153 641 -150 939 8 536 285 713 963 384 1463 -145 220 -373 382
-625 444 -92 23 -291 33 -377 19z m326 -310 c324 -85 546 -374 546 -709 0
-116 -18 -205 -59 -295 -86 -191 -248 -337 -446 -403 -72 -25 -94 -27 -225
-27 -132 0 -152 2 -225 27 -207 72 -372 225 -454 420 -82 199 -64 456 46 647
53 92 190 226 278 272 67 34 171 72 225 81 77 13 240 6 314 -13z"/>
</g>
</svg>
