<?xml version="1.0" standalone="no"?>
<!DOCTYPE svg PUBLIC "-//W3C//DTD SVG 20010904//EN"
 "http://www.w3.org/TR/2001/REC-SVG-20010904/DTD/svg10.dtd">
<svg version="1.0" xmlns="http://www.w3.org/2000/svg"
  viewBox="0 0 801.000000 801.000000"
 preserveAspectRatio="xMidYMid meet">
<metadata>
Created by potrace 1.16, written by Peter Selinger 2001-2019
</metadata>
<g transform="translate(0.000000,801.000000) scale(0.100000,-0.100000)"
fill="#3FB950" stroke="none">
<path d="M860 7071 c-141 -13 -185 -62 -224 -246 -184 -883 -54 -1773 372
-2539 470 -846 1219 -1473 2042 -1710 228 -65 407 -96 643 -112 l107 -7 0
-558 0 -559 -1539 -2 -1539 -3 -43 -31 c-129 -94 -116 -284 23 -355 37 -19
108 -19 3321 -17 l3284 3 36 27 c66 51 82 84 82 170 0 69 -3 81 -30 119 -16
23 -50 53 -74 66 l-44 23 -1529 0 -1528 0 0 560 0 560 53 0 c28 0 114 7 189
15 431 45 862 193 1243 424 251 153 566 413 761 628 541 598 861 1266 970
2025 22 153 30 654 14 832 -14 153 -53 399 -79 502 -45 176 -131 207 -511 184
-666 -42 -1226 -267 -1772 -712 -429 -351 -816 -888 -1024 -1422 -27 -69 -51
-126 -54 -126 -3 0 -14 24 -24 53 -40 114 -152 353 -232 498 -477 857 -1269
1468 -2139 1649 -246 51 -573 77 -755 61z m505 -437 c280 -38 593 -143 857
-289 715 -396 1273 -1143 1487 -1991 40 -157 78 -385 86 -509 l6 -100 -60 112
c-398 742 -1024 1346 -1694 1633 -103 45 -127 52 -168 48 -109 -11 -180 -84
-187 -192 -4 -67 9 -108 52 -154 11 -13 107 -66 211 -117 295 -144 515 -299
753 -530 385 -372 683 -836 924 -1438 33 -84 66 -169 74 -190 l14 -38 -73 6
c-489 46 -970 240 -1387 561 -143 111 -382 343 -509 494 -412 492 -673 1077
-756 1695 -40 298 -27 720 31 999 l6 28 112 -6 c61 -4 161 -14 221 -22z m5630
4 c37 -167 59 -451 52 -693 -13 -471 -120 -897 -333 -1325 -438 -880 -1199
-1509 -2044 -1689 -90 -19 -309 -51 -350 -51 -16 0 -12 16 36 140 78 204 128
317 210 482 304 606 704 1078 1184 1395 138 91 196 124 348 194 192 88 232
130 232 242 0 109 -78 196 -183 205 -49 4 -67 -1 -188 -54 -671 -294 -1275
-882 -1692 -1649 l-48 -90 5 95 c23 376 168 862 375 1255 254 484 657 920
1097 1188 382 233 820 366 1236 376 52 1 58 -1 63 -21z"/>
</g>
</svg>
