<?xml version="1.0" standalone="no"?>
<!DOCTYPE svg PUBLIC "-//W3C//DTD SVG 20010904//EN"
 "http://www.w3.org/TR/2001/REC-SVG-20010904/DTD/svg10.dtd">
<svg version="1.0" xmlns="http://www.w3.org/2000/svg"
  viewBox="0 0 831.000000 831.000000"
 preserveAspectRatio="xMidYMid meet">
<metadata>
Created by potrace 1.16, written by Peter Selinger 2001-2019
</metadata>
<g transform="translate(0.000000,831.000000) scale(0.100000,-0.100000)"
fill="#3FB950" stroke="none">
<path d="M1184 7721 c-46 -28 -82 -80 -94 -137 -7 -33 -10 -326 -8 -894 l3
-845 22 -42 c27 -50 73 -87 128 -102 28 -8 443 -11 1383 -11 l1342 0 0 -250 0
-250 -1347 0 c-910 0 -1360 -4 -1386 -11 -47 -13 -99 -58 -123 -107 -18 -35
-19 -79 -19 -912 l0 -875 22 -42 c25 -47 71 -84 122 -102 25 -8 401 -11 1382
-11 l1349 0 0 -250 0 -250 -1347 0 c-949 0 -1360 -3 -1388 -11 -59 -16 -120
-84 -134 -149 -16 -74 -15 -1684 1 -1748 14 -57 79 -126 134 -141 54 -15 5813
-15 5867 0 43 12 101 59 123 100 21 42 21 1796 0 1838 -22 41 -80 88 -123 100
-26 7 -476 11 -1385 11 l-1348 0 0 250 0 250 1348 0 c909 0 1359 4 1385 11 43
12 101 59 123 100 21 42 21 1796 0 1838 -22 41 -80 88 -123 100 -26 7 -476 11
-1385 11 l-1348 0 0 250 0 250 1348 0 c909 0 1359 4 1385 11 43 12 101 59 123
100 12 24 14 160 14 913 0 601 -3 894 -11 913 -13 34 -55 80 -91 99 -23 12
-456 14 -2970 14 -2880 0 -2944 0 -2974 -19z m5656 -1001 l0 -630 -2680 0
-2680 0 0 630 0 630 2680 0 2680 0 0 -630z m0 -2560 l0 -630 -2680 0 -2680 0
0 630 0 630 2680 0 2680 0 0 -630z m0 -2560 l0 -630 -2680 0 -2680 0 0 630 0
630 2680 0 2680 0 0 -630z"/>
</g>
</svg>
