<?xml version="1.0" standalone="no"?>
<!DOCTYPE svg PUBLIC "-//W3C//DTD SVG 20010904//EN"
 "http://www.w3.org/TR/2001/REC-SVG-20010904/DTD/svg10.dtd">
<svg version="1.0" xmlns="http://www.w3.org/2000/svg"
  viewBox="0 0 806.000000 806.000000"
 preserveAspectRatio="xMidYMid meet">
<metadata>
Created by potrace 1.16, written by Peter Selinger 2001-2019
</metadata>
<g transform="translate(0.000000,806.000000) scale(0.100000,-0.100000)"
fill="#3FB950" stroke="none">
<path d="M3978 7354 c-15 -8 -32 -22 -37 -32 -5 -9 -62 -147 -126 -307 -64
-159 -187 -463 -273 -675 -85 -212 -231 -574 -324 -805 -92 -230 -171 -422
-176 -426 -4 -4 -72 -12 -152 -18 -1300 -101 -2194 -172 -2228 -176 -88 -13
-135 -95 -93 -161 11 -18 97 -97 193 -177 689 -575 1125 -939 1318 -1102 124
-104 255 -213 293 -244 37 -30 67 -61 67 -67 0 -7 -126 -522 -280 -1146 -154
-623 -284 -1150 -289 -1171 -19 -81 26 -147 101 -147 22 0 49 5 61 12 12 6
190 121 397 256 1199 784 1602 1042 1613 1035 24 -15 681 -442 1272 -827 789
-516 725 -476 772 -476 49 0 87 27 103 74 11 35 -24 184 -435 1839 -75 302
-135 552 -133 556 3 8 113 101 1113 936 678 566 737 615 752 635 7 8 13 38 13
67 0 45 -4 54 -30 77 -17 14 -45 27 -63 30 -33 5 -152 15 -1392 111 -996 77
-989 77 -996 84 -4 3 -75 177 -159 386 -396 988 -718 1782 -736 1817 -27 52
-93 71 -146 42z m184 -702 c464 -1158 688 -1706 708 -1727 12 -13 34 -26 49
-29 23 -5 539 -47 1501 -121 179 -14 404 -32 500 -40 96 -8 182 -15 192 -15
24 0 29 5 -1307 -1109 -391 -326 -415 -348 -415 -390 0 -26 37 -187 139 -596
16 -66 109 -442 205 -835 97 -393 179 -723 182 -734 5 -14 -8 -8 -52 22 -33
22 -142 94 -244 160 -179 115 -361 233 -955 622 -605 396 -601 393 -643 388
-27 -4 -174 -95 -562 -348 -289 -189 -691 -452 -895 -585 -203 -132 -382 -249
-397 -259 l-26 -17 33 133 c18 73 78 318 134 543 55 226 159 648 231 938 71
291 130 544 130 562 0 18 -9 44 -21 59 -12 15 -101 94 -198 175 -97 81 -383
320 -636 531 -751 627 -876 732 -872 736 3 4 181 18 1607 129 484 38 601 50
625 64 36 20 19 -16 308 706 468 1171 542 1354 547 1354 3 1 62 -142 132 -317z"/>
</g>
</svg>
