<?xml version="1.0" standalone="no"?>
<!DOCTYPE svg PUBLIC "-//W3C//DTD SVG 20010904//EN"
 "http://www.w3.org/TR/2001/REC-SVG-20010904/DTD/svg10.dtd">
<svg version="1.0" xmlns="http://www.w3.org/2000/svg"
  viewBox="0 0 759.000000 759.000000"
 preserveAspectRatio="xMidYMid meet">
<metadata>
Created by potrace 1.16, written by Peter Selinger 2001-2019
</metadata>
<g transform="translate(0.000000,759.000000) scale(0.100000,-0.100000)"
fill="#3FB950" stroke="none">
<path d="M3649 7039 l-29 -31 0 -249 0 -248 -37 -6 c-287 -45 -587 -152 -838
-299 -688 -403 -1211 -1041 -1413 -1722 -211 -710 -91 -1474 326 -2084 106
-155 167 -227 321 -381 178 -177 346 -307 525 -404 60 -34 72 -37 104 -29 46
11 60 32 218 299 164 278 164 286 3 385 -439 270 -741 700 -850 1210 -34 155
-34 447 -1 610 90 443 328 839 702 1168 171 150 411 290 617 358 87 29 277 74
313 74 6 0 10 -89 10 -231 l0 -231 29 -29 c23 -22 39 -29 70 -29 38 0 49 8
209 158 604 565 781 736 792 762 18 44 4 79 -53 135 -167 161 -886 824 -904
833 -40 22 -83 15 -114 -19z m534 -643 c158 -148 287 -271 285 -275 -2 -4
-147 -143 -323 -308 l-320 -302 -5 162 c-4 119 -9 168 -20 184 -24 37 -62 47
-157 39 -658 -50 -1337 -547 -1678 -1226 -235 -469 -286 -937 -151 -1386 140
-466 460 -902 838 -1142 32 -21 57 -42 55 -47 -5 -21 -152 -265 -160 -265 -11
0 -112 69 -212 143 -177 133 -440 426 -564 630 -160 262 -274 581 -316 882
-20 143 -23 418 -5 555 57 453 240 875 546 1260 93 116 359 381 474 472 405
318 802 497 1194 537 93 9 131 27 146 67 6 14 10 100 10 192 l0 166 38 -35
c20 -20 167 -156 325 -303z"/>
<path d="M4973 5986 c-37 -17 -40 -22 -202 -302 -74 -128 -121 -219 -121 -236
0 -50 22 -77 99 -125 434 -267 744 -707 852 -1213 20 -90 23 -135 23 -315 1
-181 -3 -224 -22 -315 -101 -468 -349 -879 -707 -1174 -273 -225 -557 -359
-867 -411 l-38 -6 0 221 c0 143 -4 229 -11 243 -32 62 -105 75 -161 30 -84
-69 -927 -863 -938 -884 -11 -20 -13 -69 -4 -93 6 -15 546 -517 832 -773 125
-113 126 -113 176 -113 56 0 65 4 89 40 15 21 17 56 17 267 l0 243 23 4 c12 3
60 12 106 21 260 50 575 180 841 347 645 407 1119 1026 1305 1702 64 236 79
359 79 651 1 274 -12 386 -65 593 -166 647 -583 1213 -1142 1551 -97 58 -121
65 -164 47z m209 -323 c299 -214 564 -530 727 -868 302 -621 314 -1288 36
-1935 -262 -611 -855 -1188 -1480 -1444 -195 -79 -342 -118 -582 -152 -18 -3
-45 -16 -60 -29 l-28 -23 -5 -186 -5 -186 -172 157 c-94 87 -243 223 -331 303
-88 80 -160 148 -159 151 1 3 151 146 332 316 l330 309 5 -174 5 -174 30 -25
c28 -25 33 -25 121 -20 320 21 684 166 982 389 447 336 763 826 878 1363 35
164 43 418 20 589 -77 545 -375 1041 -829 1378 -43 32 -86 62 -94 67 -14 7 -4
30 63 145 43 74 83 136 87 136 5 0 63 -39 129 -87z"/>
</g>
</svg>
