<?xml version="1.0" standalone="no"?>
<!DOCTYPE svg PUBLIC "-//W3C//DTD SVG 20010904//EN"
 "http://www.w3.org/TR/2001/REC-SVG-20010904/DTD/svg10.dtd">
<svg version="1.0" xmlns="http://www.w3.org/2000/svg"
  viewBox="0 0 892.000000 892.000000"
 preserveAspectRatio="xMidYMid meet">
<metadata>
Created by potrace 1.16, written by Peter Selinger 2001-2019
</metadata>
<g transform="translate(0.000000,892.000000) scale(0.100000,-0.100000)"
fill="#3FB950" stroke="none">
<path d="M6650 8300 c-60 -15 -479 -169 -506 -186 -33 -22 -64 -84 -64 -127 0
-19 7 -54 15 -78 9 -23 12 -46 8 -50 -5 -4 -96 -40 -203 -79 -107 -39 -249
-91 -315 -115 -66 -24 -307 -112 -535 -195 -227 -83 -433 -162 -456 -175 -80
-47 -132 -133 -141 -234 l-5 -57 -52 -18 c-45 -16 -485 -176 -1801 -653 -220
-80 -452 -163 -515 -185 -204 -72 -268 -116 -311 -213 -34 -78 -34 -139 0
-245 17 -52 27 -97 23 -101 -4 -3 -72 -30 -152 -59 -461 -167 -460 -166 -548
-233 -103 -78 -193 -214 -226 -344 -21 -80 -21 -256 0 -337 52 -204 224 -384
429 -449 57 -18 93 -22 195 -22 140 1 124 -4 496 133 261 97 237 94 266 30 35
-75 79 -122 150 -158 50 -25 73 -30 130 -30 65 0 106 13 686 224 339 124 624
227 632 230 10 4 24 -9 43 -44 35 -63 100 -138 159 -186 l46 -38 -63 -120
c-35 -67 -180 -346 -323 -621 -315 -606 -540 -1037 -824 -1580 -606 -1156
-601 -1147 -606 -1194 -5 -54 22 -101 77 -138 58 -39 147 -28 194 25 17 19
243 445 614 1159 l168 323 477 0 477 0 3 -707 c3 -694 3 -709 24 -743 61 -104
193 -108 268 -7 21 28 21 36 24 743 l2 714 480 0 480 0 51 -102 c28 -57 104
-204 169 -328 65 -124 213 -407 330 -630 116 -223 219 -413 228 -424 62 -68
190 -59 244 17 12 16 23 51 26 77 5 53 5 52 -202 448 -57 108 -253 483 -436
832 -183 349 -383 732 -445 850 -131 250 -461 884 -595 1145 -51 99 -103 198
-115 220 l-23 40 62 52 c167 136 258 395 214 605 l-14 67 35 14 c35 15 36 14
74 -25 57 -58 137 -92 217 -92 57 0 97 12 315 91 388 142 1018 371 1137 414
l107 38 11 -40 c22 -82 100 -137 179 -126 47 6 489 169 551 203 26 14 75 53
108 87 303 306 341 1035 87 1667 -120 299 -288 556 -492 750 -160 153 -319
250 -464 285 -68 16 -221 18 -279 5z m320 -362 c206 -114 419 -367 566 -673
129 -269 182 -491 191 -791 8 -258 -12 -397 -79 -546 -20 -45 -34 -65 -39 -56
-4 7 -100 279 -214 603 -113 325 -278 794 -366 1043 -87 249 -159 455 -159
458 0 9 44 -7 100 -38z m-245 -514 c97 -274 195 -555 220 -624 24 -69 103
-294 175 -500 72 -206 149 -424 170 -484 22 -60 39 -111 37 -112 -1 -1 -26
-11 -55 -22 l-53 -20 -10 26 c-25 68 -34 84 -61 107 -37 32 -95 47 -134 36
-16 -5 -384 -138 -818 -295 -434 -158 -792 -284 -796 -279 -4 4 -19 42 -33 83
-24 71 -84 244 -230 660 -283 804 -357 1016 -357 1025 0 5 190 79 423 163
1237 447 1190 429 1224 466 48 52 57 100 34 175 -14 45 -16 63 -8 67 49 17 92
31 94 30 1 -1 81 -227 178 -502z m-2103 -916 c36 -106 119 -341 183 -523 64
-181 140 -398 170 -482 l53 -152 -63 -21 -63 -21 -54 41 c-200 153 -454 181
-673 73 -205 -101 -312 -251 -360 -505 -3 -16 -10 -28 -15 -28 -5 0 -289 -101
-631 -225 -342 -124 -623 -224 -626 -222 -7 7 -473 1337 -473 1350 0 7 106 50
236 97 130 47 683 248 1228 446 545 199 998 362 1006 363 11 1 33 -51 82 -191z
m-2700 -1265 c9 -27 54 -156 101 -289 47 -132 88 -251 92 -265 6 -24 -1 -27
-267 -124 -249 -91 -280 -100 -356 -103 -77 -4 -88 -2 -147 27 -72 35 -121 88
-157 167 -34 73 -32 189 3 265 30 62 89 128 141 155 27 14 550 210 569 213 3
1 12 -20 21 -46z m2645 -94 c66 -25 139 -92 174 -160 34 -67 38 -185 8 -264
-30 -80 -104 -154 -182 -183 -122 -46 -252 -19 -343 72 -71 72 -97 143 -92
251 5 98 30 150 100 217 90 86 216 111 335 67z m-277 -1919 l0 -750 -391 0
c-368 0 -391 1 -384 18 3 9 84 166 179 347 95 182 267 511 382 732 115 222
210 403 212 403 1 0 2 -337 2 -750z m630 165 c398 -760 470 -901 470 -908 0
-4 -175 -7 -390 -7 l-390 0 0 753 c0 418 4 745 9 737 5 -8 140 -267 301 -575z"/>
</g>
</svg>
