<?xml version="1.0" standalone="no"?>
<!DOCTYPE svg PUBLIC "-//W3C//DTD SVG 20010904//EN"
 "http://www.w3.org/TR/2001/REC-SVG-20010904/DTD/svg10.dtd">
<svg version="1.0" xmlns="http://www.w3.org/2000/svg"
  viewBox="0 0 694.000000 694.000000"
 preserveAspectRatio="xMidYMid meet">
<metadata>
Created by potrace 1.16, written by Peter Selinger 2001-2019
</metadata>
<g transform="translate(0.000000,694.000000) scale(0.100000,-0.100000)"
fill="#3FB950" stroke="none">
<path d="M512 5313 c-7 -3 -19 -18 -27 -33 -13 -25 -15 -229 -15 -1562 0
-1511 0 -1533 20 -1565 11 -18 21 -34 22 -35 2 -1 106 -4 232 -7 l230 -6 12
-49 c44 -172 192 -332 367 -394 100 -36 249 -37 355 -4 185 58 333 216 382
410 l11 42 1357 0 1357 0 23 -72 c55 -178 201 -326 377 -381 98 -31 253 -30
343 2 183 63 333 224 374 398 l13 52 238 3 c237 3 239 3 258 27 18 22 19 49
19 744 l0 720 -117 191 c-64 105 -194 317 -288 471 -94 154 -184 301 -198 326
-15 25 -38 56 -53 70 l-26 24 -649 3 -649 3 0 288 c0 277 -1 289 -21 315 l-20
26 -1957 -1 c-1076 0 -1963 -3 -1970 -6z m3788 -1193 l0 -1030 -1825 0 -1825
0 0 1023 c0 563 3 1027 7 1030 3 4 825 7 1825 7 l1818 0 0 -1030z m400 -99 l0
-480 24 -28 24 -28 769 -5 768 -5 -1 -590 -1 -590 -169 -3 -169 -2 -13 52
c-22 96 -70 178 -151 259 -115 115 -243 169 -399 169 -262 -1 -487 -179 -552
-437 l-11 -43 -169 0 -170 0 0 1105 0 1105 110 0 110 0 0 -479z m1130 262 c73
-120 181 -294 238 -388 58 -93 114 -185 124 -202 l20 -33 -666 0 -666 0 0 420
0 420 408 0 408 0 134 -217z m-1530 -1688 l0 -305 -1100 0 -1099 0 -11 43
c-54 212 -217 374 -427 423 -86 20 -224 14 -306 -15 -175 -61 -320 -214 -368
-386 l-16 -60 -159 0 -159 0 -3 303 -2 302 1825 0 1825 0 0 -305z m-2614 -36
c73 -28 164 -116 202 -196 24 -52 27 -69 27 -163 0 -92 -3 -112 -26 -160 -94
-198 -329 -281 -524 -185 -66 32 -148 119 -183 192 -23 50 -27 71 -27 153 0
85 3 102 31 160 91 191 299 274 500 199z m3772 21 c120 -22 220 -102 275 -217
29 -62 32 -77 32 -163 0 -88 -3 -101 -33 -162 -61 -124 -163 -200 -293 -218
-167 -24 -330 64 -406 217 -25 53 -28 68 -28 163 0 93 3 112 27 162 77 164
248 252 426 218z"/>
</g>
</svg>
