<?xml version="1.0" standalone="no"?>
<!DOCTYPE svg PUBLIC "-//W3C//DTD SVG 20010904//EN"
 "http://www.w3.org/TR/2001/REC-SVG-20010904/DTD/svg10.dtd">
<svg version="1.0" xmlns="http://www.w3.org/2000/svg"
  viewBox="0 0 604.000000 604.000000"
 preserveAspectRatio="xMidYMid meet">
<metadata>
Created by potrace 1.16, written by Peter Selinger 2001-2019
</metadata>
<g transform="translate(0.000000,604.000000) scale(0.100000,-0.100000)"
fill="#3FB950" stroke="none">
<path d="M480 5133 c-8 -3 -27 -17 -42 -31 l-28 -26 0 -2056 0 -2056 28 -27
28 -27 2545 0 c1984 1 2547 3 2559 13 9 7 24 23 33 37 16 23 17 158 17 2056
l0 2031 -23 34 c-12 18 -34 39 -47 46 -20 10 -547 13 -2540 12 -1383 0 -2522
-3 -2530 -6z m4890 -2110 l0 -1878 -2362 3 -2363 2 1 1868 c1 1027 2 1870 3
1875 0 4 1063 7 2361 7 l2360 0 0 -1877z"/>
<path d="M2314 4441 c-17 -10 -36 -32 -43 -47 -8 -22 -11 -184 -9 -637 l3
-609 33 -29 c37 -33 94 -39 142 -14 61 32 60 16 60 672 0 574 -1 599 -19 627
-38 57 -109 73 -167 37z"/>
<path d="M1225 4307 c-38 -38 -50 -74 -40 -114 4 -18 78 -100 201 -223 l194
-195 -198 -198 -197 -197 0 -51 c0 -46 4 -54 37 -85 42 -38 89 -45 136 -20 32
18 485 472 501 503 15 30 14 69 -3 101 -18 32 -472 485 -503 501 -44 22 -92
14 -128 -22z"/>
</g>
</svg>
