<?xml version="1.0" standalone="no"?>
<!DOCTYPE svg PUBLIC "-//W3C//DTD SVG 20010904//EN"
 "http://www.w3.org/TR/2001/REC-SVG-20010904/DTD/svg10.dtd">
<svg version="1.0" xmlns="http://www.w3.org/2000/svg"
  viewBox="0 0 792.000000 792.000000"
 preserveAspectRatio="xMidYMid meet">
<metadata>
Created by potrace 1.16, written by Peter Selinger 2001-2019
</metadata>
<g transform="translate(0.000000,792.000000) scale(0.100000,-0.100000)"
fill="#3FB950" stroke="none">
<path d="M3054 6865 c-169 -37 -310 -165 -366 -334 -20 -61 -22 -90 -26 -393
l-4 -328 -981 -1 c-728 0 -990 -4 -1015 -12 -17 -7 -46 -25 -62 -41 -65 -60
-60 118 -60 -2328 0 -1989 2 -2233 15 -2266 19 -43 50 -79 87 -98 23 -12 511
-14 3320 -14 l3293 0 38 23 c21 13 47 36 57 53 20 28 20 69 20 2292 0 2231 0
2263 -20 2301 -11 22 -36 50 -57 62 l-38 24 -997 3 -998 2 0 303 c0 339 -8
396 -62 500 -42 80 -137 174 -211 210 -117 57 -118 57 -1032 56 -659 0 -853
-3 -901 -14z m1766 -363 c19 -9 45 -32 57 -51 23 -33 23 -39 23 -337 l0 -304
-940 0 -940 0 0 295 c0 312 3 339 48 378 11 10 33 22 48 27 16 4 398 9 849 9
762 1 822 0 855 -17z m2204 -1084 c4 -13 5 -425 4 -915 l-2 -893 -3063 0
-3063 0 0 915 0 915 3059 0 3059 0 6 -22z m0 -2400 c8 -243 7 -1533 -1 -1585
l-5 -33 -3059 0 -3059 0 0 920 0 920 3059 0 3058 0 7 -222z"/>
</g>
</svg>
